<svg width="1377" height="519" viewBox="0 0 1377 519" fill="none" xmlns="http://www.w3.org/2000/svg">
<path d="M30.1011 434.002C22.8206 453.844 27.9936 472.282 42.7461 485.808C59.4784 501.184 78.7014 493.528 97.7328 484.979C98.0521 488.743 98.7546 491.741 98.4991 494.74C97.8605 501.885 97.7328 508.903 98.0521 515.794C103.928 515.794 109.803 515.794 115.678 515.858C115.295 504.693 115.998 493.4 115.934 482.171C115.87 465.711 107.376 460.416 93.1346 468.008C87.5784 471.006 82.3416 474.707 76.6577 477.259C63.1825 483.384 50.9845 478.854 47.7913 464.69C45.3645 453.908 46.067 442.296 46.4502 431.131C46.7695 422.901 46.4502 417.032 35.785 417.414C24.6088 417.861 18.6695 411.991 19.3081 400.571C19.819 390.937 18.9888 380.729 21.8627 371.797C28.1852 352.083 36.1043 332.816 44.0872 313.612C58.1373 279.734 74.0393 246.686 96.3916 217.338C109.228 200.495 122.065 183.141 137.456 168.786C166.45 141.735 203.172 129.804 240.66 118.576C287.28 104.603 331.538 109.771 374.582 128.911C403.512 141.735 429.058 160.428 452.879 181.482C456.455 184.672 464.055 183.269 469.803 184.034C467.951 179.951 467.121 174.656 464.055 172.04C450.899 160.747 437.743 149.136 423.31 139.63C377.647 109.516 328.536 89.8657 272.4 97.9682C211.921 106.709 156.232 125.913 112.23 171.721C83.9382 201.196 62.5439 235.266 45.3007 271.376C29.0793 305.254 17.7115 341.556 5.32196 377.157C-4.89623 406.568 1.93719 421.051 30.3565 434.066L30.1011 434.002Z" fill="#535986"/>
<path d="M1373.98 317.313C1371.43 281.649 1361.21 247.58 1343.9 217.019C1321.74 177.846 1286.81 150.412 1245.62 133.059C1198.23 113.089 1148.48 101.924 1096.5 108.241C1043.43 114.684 991.697 125.339 949.674 162.279C947.503 164.193 943.48 166.554 941.628 165.724C929.621 160.493 917.998 154.495 906.949 149.009C915.571 141.991 924.767 136.568 930.835 128.784C935.369 122.915 937.859 113.983 937.859 106.39C937.859 86.0382 919.978 77.6166 906.439 69.7692C873.74 50.9482 836.508 45.0148 799.275 41.442C771.431 38.7624 743.458 37.295 713.826 35.1258C713.826 30.5322 713.953 25.1093 713.826 19.6863C713.762 16.9429 713.762 13.9443 712.676 11.5199C708.461 2.14128 689.43 -2.70751 673.655 1.56709C662.479 4.62948 659.35 12.9235 660.308 23.5781C661.138 32.51 659.286 37.2312 648.046 38.6986C612.346 43.2922 576.646 48.3324 541.521 56.0522C513.293 62.2408 486.854 73.4058 466.737 96.6289C445.917 120.682 453.07 154.432 482.767 165.214C487.046 166.745 491.261 168.404 497.391 170.764C486.598 177.846 477.594 183.397 469.1 189.649C466.928 191.244 466.354 194.945 465.013 197.688C468.27 199.155 471.463 201.516 474.848 201.835C477.083 202.026 479.637 199.411 482.064 198.071C500.904 188.054 519.169 176.506 538.775 168.276C574.986 153.092 613.24 144.734 652.133 138.864C704.949 130.889 757.955 127.955 810.643 136.695C838.104 141.225 865.183 149.647 891.686 158.515C906.502 163.491 921.83 170.764 933.134 181.1C942.905 190.032 946.609 187.289 953.953 180.398C963.405 171.53 972.921 161.832 984.225 155.899C1032.38 130.762 1083.47 118.002 1138.33 121.958C1180.8 125.02 1221.03 135.483 1257.88 156.601C1292.43 176.379 1321.42 202.983 1337.2 240.306C1345.57 260.084 1351.82 281.33 1354.89 302.575C1358.08 324.522 1359.62 347.809 1355.85 369.501C1350.42 400.891 1324.17 412.949 1293.45 402.613C1290.07 401.465 1286.75 399.487 1283.3 399.36C1276.66 399.041 1268.55 397.701 1263.76 400.891C1261.01 402.677 1262.16 413.076 1264.14 418.691C1270.91 438.277 1254.94 462.713 1234.19 462.011C1224.1 461.692 1214.07 458.949 1204.04 457.226C1193.19 455.312 1186.48 459.714 1184.44 470.56C1183.67 474.452 1183.35 478.408 1182.84 482.299C1180.92 498.249 1171.54 507.756 1156.27 513.179C1126.7 523.578 1100.9 512.477 1075.61 500.1C1063.42 494.102 1053.07 484.341 1041.32 477.259C1038.64 475.664 1033.59 478.025 1029.57 478.535C1031.1 482.555 1031.48 488.871 1034.29 490.211C1050.32 497.93 1052.37 510.116 1047.96 525.364C1047.13 528.235 1046.36 531.106 1045.53 533.977C1050.71 534.679 1055.94 535.381 1061.12 536.146C1062.97 528.682 1064.82 521.153 1066.8 513.561C1070.76 514.71 1073.63 515.029 1075.93 516.305C1093.94 526.13 1113.17 530.979 1133.67 531.361C1168.98 531.999 1193.31 514.327 1200.08 482.427C1200.79 479.109 1201.3 475.728 1202 471.836C1222.12 474.133 1241.02 482.044 1259.92 468.136C1278.13 454.738 1285.98 438.724 1280.94 415.054C1286.49 416.203 1290.51 417.861 1294.6 417.798C1308.65 417.67 1323.66 419.839 1336.62 415.756C1362.17 407.781 1372.58 385.706 1375.52 361.08C1377.24 346.852 1374.94 332.051 1373.92 317.568L1373.98 317.313ZM688.089 12.9235C697.476 12.5407 700.925 18.5379 700.606 37.8054C691.537 31.9358 678.701 45.0148 674.358 29.5114C671.484 19.3035 677.615 13.3063 688.089 12.9235ZM869.078 135.483C812.24 115.641 753.293 113.281 694.156 120.171C653.41 124.892 612.921 132.038 572.623 139.885C556.976 142.948 542.415 151.178 527.216 156.728C510.675 162.726 480.212 150.476 473.89 135.547C472.996 133.378 472.357 131.145 471.654 129.039C474.337 110.92 484.236 96.8203 499.627 89.6748C521.724 79.403 544.842 70.2796 568.472 64.729C622.309 52.0966 677.487 49.736 732.602 51.0758C778.136 52.2242 823.671 55.9884 867.482 69.3864C883.384 74.2352 898.903 82.0826 912.825 91.2698C928.727 101.797 926.939 115.578 912.25 128.21C898.839 139.758 885.938 141.353 869.014 135.483H869.078Z" fill="#535986"/>
<path d="M302.927 195.136C296.221 196.412 289.516 197.943 282.746 199.028C250.431 204.132 222.139 218.359 195.253 236.287C174.88 249.812 157.637 265.635 144.545 286.689C127.94 313.357 120.852 342.322 118.361 373.01C117.914 378.497 117.467 384.111 115.934 389.279C115.232 391.703 111.527 395.149 109.612 394.893C106.738 394.511 102.523 391.703 101.948 389.151C100.479 383.154 99.3933 376.455 100.671 370.522C105.205 349.021 110.059 327.457 116.126 306.339C123.725 280.054 141.032 259.829 161.405 242.667C185.993 221.932 213.198 204.961 244.045 194.881C263.14 188.692 282.682 184.8 302.544 191.053C302.672 192.392 302.799 193.668 302.927 195.008V195.136Z" fill="#535986"/>
<path d="M1088.64 163.172C1146.82 167.575 1194.34 188.884 1230.29 232.969C1253.15 260.978 1247.41 284.201 1232.4 311.826C1229.01 318.015 1225.5 324.778 1220.2 329.116C1216.69 332.051 1209.98 331.094 1204.68 331.923C1205.7 327.904 1205.96 323.502 1207.81 319.929C1215.99 304.425 1229.14 291.538 1229.14 272.079C1229.14 257.66 1223.65 245.921 1214.96 235.33C1191.53 206.875 1160.68 189.968 1125.68 180.271C1114 177.017 1101.54 176.507 1089.54 174.018C1085.96 173.253 1082.83 170.063 1079.51 168.021C1082.77 166.299 1085.96 164.576 1088.51 163.172H1088.64Z" fill="#535986"/>
<path d="M754.901 465.656C753.226 452.05 748.968 438.713 745 425.494C732.301 383.714 712.973 371.177 673.216 373.094C636.972 375.868 606.615 403.125 597.805 437.888C587.911 476.89 583.34 516.47 595.669 556.166C605.105 586.574 620.446 611.389 653.693 620.042C675.236 625.648 696.737 624.283 714.717 611.849C730.296 601.149 741.732 585.06 746.539 566.028C750.753 549.365 755.015 532.417 756.457 515.403C757.873 498.954 756.866 482.128 754.831 465.662L754.901 465.656Z" fill="#535986"/>
<path d="M470.085 365.875C469.514 365.485 468.869 365.17 468.38 364.704C452.498 349.581 436.639 334.436 420.749 319.32C412.962 311.909 405.138 304.55 397.336 297.154C394.355 294.323 393.236 290.952 394.535 286.949C395.841 282.902 398.732 280.695 402.855 280.094C405.851 279.658 408.404 280.77 410.552 282.775C417.348 289.135 424.129 295.51 430.872 301.93C447.753 317.999 464.596 334.098 481.469 350.174C482.415 351.075 483.429 351.901 484.465 352.81C486.388 350.963 488.355 349.266 490.105 347.351C497.111 339.707 504.184 332.131 510.965 324.284C519.09 314.883 528.747 307.118 537.781 298.686C539.793 296.809 541.663 294.789 543.615 292.859C547.505 289.014 553.34 288.917 557.297 292.596C561.127 296.163 561.502 302.41 557.725 306.27C551.568 312.555 545.387 318.855 538.809 324.689C530.977 331.635 523.851 339.219 516.852 346.961C511.408 352.983 505.957 359.005 500.505 365.019C500.009 365.568 499.499 366.108 498.838 366.822C500.422 368.383 501.902 369.878 503.411 371.349C511.754 379.444 520.111 387.509 528.439 395.626C539.53 406.446 550.614 417.281 561.66 428.147C565.602 432.029 566.06 437.142 563.004 441.392C559.753 445.92 553.295 446.814 549.112 443.112C545.703 440.093 542.511 436.82 539.252 433.628C524.782 419.466 510.327 405.29 495.857 391.128C492.553 387.892 489.173 384.738 485.892 381.479C484.916 380.518 484.285 380.578 483.241 381.456C473.997 389.191 466.203 398.321 458.153 407.204C453.535 412.295 448.691 417.199 444.358 422.515C439.673 428.267 435.483 434.424 431.022 440.356C428.469 443.75 425.893 447.129 423.16 450.373C419.593 454.623 413.586 455.186 409.568 451.807C405.175 448.105 404.372 442.016 408.254 437.863C416.034 429.558 421.748 419.737 428.777 410.899C432.231 406.551 435.986 402.444 439.733 398.336C447.82 389.483 455.998 380.713 464.1 371.883C465.872 369.953 467.494 367.888 469.184 365.883C469.484 365.883 469.792 365.868 470.093 365.86L470.085 365.875Z" fill="#535986"/>
<path d="M862.927 366.039C861.478 364.356 860.158 362.808 858.822 361.275C844.22 344.588 829.61 327.902 815.007 311.208C811.03 306.661 807.083 302.083 803.106 297.536C799.234 293.108 799.467 287.387 803.707 283.55C807.714 279.922 813.627 280.147 817.431 284.343C823.081 290.573 828.559 296.953 834.09 303.28C840.408 310.498 846.703 317.73 853.014 324.963C861.081 334.207 869.147 343.452 877.221 352.696C877.469 352.98 877.754 353.227 877.964 353.534C878.977 355.007 879.96 355.067 881.514 354.027C905.218 338.179 928.968 322.405 952.702 306.601C956.859 303.834 960.971 301.014 965.129 298.247C970.246 294.836 976.069 295.801 979.273 300.55C982.425 305.225 981.202 310.924 976.099 314.335C950.429 331.507 924.728 348.635 899.035 365.77C896.919 367.183 894.803 368.59 892.522 370.108C895.343 373.354 898.015 376.45 900.708 379.532C911.401 391.775 922.094 404.019 932.795 416.263C937.222 421.326 941.634 426.405 946.099 431.438C949.918 435.746 949.783 441.49 945.694 445.312C941.679 449.067 935.639 448.917 931.804 444.677C925.418 437.601 919.205 430.376 912.925 423.203C905.541 414.767 898.165 406.315 890.788 397.871C886.324 392.755 881.814 387.677 877.432 382.494C876.336 381.2 875.571 381.125 874.205 382.022C857.809 392.74 841.383 403.421 824.942 414.079C817.093 419.172 809.207 424.213 801.328 429.262C796.616 432.283 790.763 431.057 787.656 426.442C784.639 421.962 785.825 416.143 790.552 413.024C796.54 409.075 802.626 405.276 808.652 401.371C826.083 390.07 843.507 378.754 860.931 367.43C861.546 367.034 862.139 366.593 862.934 366.032L862.927 366.039Z" fill="#535986"/>
</svg>
