<svg width="1430" height="947" viewBox="0 0 1430 947" fill="none" xmlns="http://www.w3.org/2000/svg">
<g opacity="0.3">
<path d="M70.3488 756.617C59.6195 764.278 50.717 772.171 40.5337 777.628C8.51395 794.798 -29.6788 789.32 -50.0244 756.071C-62.8113 735.165 -66.1288 712.958 -64.0291 689.239C-63.7982 686.636 -64.4071 683.97 -64.68 680.654C-81.3933 688.168 -98.3375 694.927 -113.056 681.41C-126.032 669.487 -130.609 653.262 -124.184 635.777C-149.191 624.317 -155.238 611.555 -146.231 585.674C-135.312 554.315 -125.276 522.368 -111.019 492.499C-95.8389 460.699 -77.047 430.704 -52.1031 404.719C-13.3644 364.334 35.6415 347.458 88.9098 339.734C138.315 332.576 181.567 349.893 221.776 376.424C234.5 384.82 246.048 395.042 257.638 404.992C260.347 407.322 261.06 411.981 262.698 415.592C257.659 414.941 250.982 416.158 247.833 413.367C226.857 394.832 204.391 378.397 178.922 367.063C140.981 350.208 102.054 345.653 61.0053 357.953C28.0197 367.86 -4.33595 378.355 -29.8468 402.179C-43.3895 414.836 -54.7066 430.096 -65.9818 444.957C-85.6346 470.816 -99.6603 499.909 -112.006 529.778C-118.998 546.675 -125.969 563.635 -131.554 581.014C-134.074 588.886 -133.318 597.848 -133.801 606.349C-134.347 616.424 -129.097 621.567 -119.292 621.189C-109.865 620.832 -109.655 626.017 -109.907 633.258C-110.264 643.124 -110.872 653.346 -108.731 662.812C-105.896 675.302 -95.167 679.311 -83.304 673.895C-78.2648 671.607 -73.6875 668.333 -68.7953 665.709C-56.2394 658.992 -48.7646 663.652 -48.7226 678.177C-48.6806 690.582 -49.7095 703.071 -48.5127 715.351C-46.602 734.934 -39.9461 752.86 -23.2958 765.055C-7.5484 776.579 9.9837 777.019 27.1169 769.274C46.8536 760.332 62.2861 745.66 74.989 728.175C76.3958 726.244 76.9837 723.705 77.9496 721.459C89.2037 730.673 86.0542 740.182 85.1513 748.137C80.847 785.751 75.8709 823.302 70.5797 860.791C67.8082 880.395 63.4199 899.79 60.5854 919.395C54.3704 962.362 49.1423 1005.48 42.6124 1048.4C38.749 1073.76 33.2899 1098.88 28.3557 1124.07C23.9254 1146.78 19.5161 1169.51 14.5819 1192.14C9.66875 1214.72 3.85271 1237.1 -1.03949 1259.69C-7.38045 1288.84 -12.9865 1318.14 -19.3275 1347.3C-24.5136 1371.1 -30.1617 1394.82 -35.8728 1418.52C-40.765 1438.79 -45.6991 1459.05 -51.2212 1479.16C-55.0636 1493.16 -59.9978 1506.86 -64.3231 1520.76C-71.147 1542.69 -77.32 1564.84 -84.7737 1586.56C-91.3037 1605.54 -99.2403 1624.03 -106.505 1642.73C-112.657 1658.58 -118.872 1674.43 -124.751 1690.38C-125.633 1692.79 -124.289 1696.01 -125.066 1698.52C-126.242 1702.37 -128.468 1705.85 -130.063 1709.59C-134.368 1719.68 -139.827 1729.51 -142.577 1740.02C-150.64 1770.88 -156.666 1802.28 -165.274 1832.97C-175.878 1870.77 -175.143 1907.96 -163.784 1945.2C-153.327 1979.48 -143.48 2013.96 -131.68 2047.76C-121.581 2076.7 -109.214 2104.85 -97.6026 2133.25C-80.6164 2174.83 -61.1736 2215.55 -46.9799 2258.06C-34.256 2296.15 -24.7446 2335.76 -18.3196 2375.43C-11.0968 2419.97 -8.34627 2465.27 -4.75586 2510.34C-2.23627 2541.91 0.304291 2573.77 -7.0025 2605.04C-9.33311 2615.01 -15.2961 2624.08 -19.0335 2633.76C-28.7759 2658.99 -39.7781 2683.88 -47.3789 2709.76C-57.8141 2745.34 -66.2547 2781.57 -74.1075 2817.82C-77.2989 2832.6 -76.69 2848.21 -77.8448 2864.06C-83.052 2863.83 -87.3983 2863.62 -93.1303 2863.37C-90.6318 2841.77 -88.5111 2820.42 -85.6556 2799.18C-78.7477 2747.86 -61.3836 2699.44 -43.3265 2651.33C-39.3372 2640.68 -31.3795 2631.55 -25.3325 2621.67C-24.3036 2619.99 -23.2538 2618.02 -23.1488 2616.13C-21.3222 2586.32 -17.9837 2556.47 -18.4036 2526.69C-18.8026 2497.62 -22.393 2468.5 -25.8364 2439.56C-29.7838 2406.46 -33.0802 2373.04 -40.45 2340.61C-48.0297 2307.22 -59.0949 2274.49 -70.643 2242.17C-83.262 2206.82 -98.3375 2172.38 -111.985 2137.41C-127.901 2096.58 -144.803 2056.09 -158.724 2014.59C-172.308 1974.06 -188.539 1933.42 -187.72 1889.87C-187.237 1864.72 -182.534 1839.33 -176.823 1814.7C-169.705 1784.04 -159.689 1754.02 -150.703 1723.8C-148.225 1715.48 -144.908 1707.45 -142.136 1699.24C-141.38 1697.01 -140.331 1694.35 -140.897 1692.29C-147.616 1667.08 -154.713 1642 -161.516 1616.81C-167.332 1595.3 -173.526 1573.86 -178.46 1552.14C-187.174 1513.83 -196.307 1475.57 -202.858 1436.86C-207.834 1407.46 -209.934 1377.48 -211.719 1347.65C-213.21 1322.76 -213.923 1297.59 -212.139 1272.76C-210.165 1245.5 -195.594 1222.68 -179.048 1201.71C-150.787 1165.92 -122.526 1130.07 -92.9414 1095.38C-69.2363 1067.56 -43.8515 1041.14 -18.6556 1014.63C-0.493576 995.505 18.8022 977.474 37.0482 958.415C40.8276 954.469 43.5572 948.34 44.3551 942.883C49.6462 907.221 54.2234 871.454 59.1366 835.729C62.685 809.89 66.4225 784.072 70.3068 756.596L70.3488 756.617ZM39.4418 977.432C37.7831 976.173 36.1034 974.893 34.4447 973.633C32.744 977.076 31.6941 981.106 29.2165 983.834C13.1332 1001.51 -3.3701 1018.78 -19.5374 1036.37C-42.3397 1061.22 -65.8138 1085.53 -87.4613 1111.37C-117.339 1147.05 -146.63 1183.3 -174.513 1220.54C-188.959 1239.83 -198.323 1262.44 -197.987 1287.48C-197.672 1311.15 -197.882 1334.98 -195.468 1358.49C-191.583 1396.54 -187.909 1434.87 -180.182 1472.25C-169.831 1522.27 -155.805 1571.56 -143.165 1621.09C-139.512 1635.41 -135.228 1649.55 -130.714 1665.61C-128.51 1661.52 -126.767 1659.06 -125.801 1656.31C-114.421 1623.95 -102.915 1591.64 -91.9545 1559.15C-82.2121 1530.23 -72.1338 1501.39 -64.0081 1472C-54.2237 1436.53 -46.0561 1400.59 -37.7624 1364.72C-31.1065 1335.92 -25.2065 1306.96 -19.1595 1278.03C-11.5378 1241.45 -4.25197 1204.78 3.45377 1168.21C6.96019 1151.59 11.7264 1135.19 14.8549 1118.51C22.9176 1075.48 30.4133 1032.34 38.0771 989.25C38.77 985.367 39.0009 981.4 39.4418 977.453V977.432Z" fill="#15133D"/>
<path d="M547.957 1418.64C552.555 1411.78 556.944 1404.73 561.815 1398.05C579.158 1374.25 596.123 1350.15 614.243 1326.92C635.87 1299.19 657.097 1271.04 668.33 1237.52C678.304 1207.76 675.511 1176.84 668.813 1146.55C665.034 1129.44 659.974 1112.61 655.522 1095.8C641.833 1098.44 639.166 1096.22 643.449 1084.8C650.798 1065.17 660.267 1046.34 667.49 1026.7C680.823 990.53 693.022 953.945 705.956 917.632C718.533 882.348 732.223 847.42 743.918 811.863C754.311 780.273 762.626 748.011 771.906 716.064C775.812 702.652 774.027 691.863 759.896 685.083C757.44 683.908 757.083 678.345 755.739 674.819C759.245 674.357 763.697 672.279 766.069 673.706C776.42 679.961 785.491 688.546 796.241 693.815C818.497 704.709 841.258 714.532 867.273 705.359C880.689 700.616 888.92 692.241 890.642 678.177C891.062 674.714 891.377 671.23 892.027 667.829C893.854 658.3 899.712 654.438 909.308 656.096C918.126 657.628 926.945 660.042 935.826 660.336C954.093 660.923 968.161 639.43 962.177 622.155C960.455 617.201 959.447 608.049 961.841 606.454C966.061 603.663 973.158 604.859 979.037 605.111C982.04 605.237 984.979 607 987.94 608.007C1015 617.117 1038.1 606.496 1042.89 578.852C1046.21 559.772 1044.82 539.265 1042.03 519.891C1039.32 501.231 1033.82 482.487 1026.47 465.065C1012.59 432.153 987.058 408.749 956.634 391.306C924.236 372.73 888.815 363.473 851.42 360.808C803.086 357.344 758.111 368.532 715.74 390.697C705.788 395.903 697.41 404.446 689.075 412.254C682.587 418.32 679.311 420.713 670.724 412.863C660.75 403.753 647.271 397.351 634.253 392.985C610.926 385.177 587.116 377.789 562.928 373.779C516.504 366.076 469.85 368.658 423.363 375.69C389.139 380.874 355.461 388.221 323.567 401.612C306.308 408.854 290.245 419.013 273.658 427.85C271.495 429.004 269.291 431.355 267.296 431.166C264.315 430.872 261.501 428.815 258.625 427.514C259.8 425.121 260.325 421.847 262.236 420.461C269.732 414.983 277.647 410.092 287.159 403.837C281.763 401.78 278.046 400.332 274.309 398.968C248.168 389.459 241.89 359.716 260.199 338.537C277.899 318.072 301.143 308.248 326.002 302.791C356.909 296.032 388.383 291.561 419.773 287.51C429.641 286.23 431.279 282.095 430.544 274.203C429.662 264.799 432.434 257.537 442.281 254.829C456.139 251.009 472.936 255.291 476.632 263.561C477.577 265.681 477.577 268.325 477.64 270.739C477.787 275.525 477.682 280.311 477.682 284.341C503.759 286.23 528.409 287.531 552.933 289.903C585.709 293.073 618.442 298.278 647.25 314.881C659.197 321.766 674.944 329.218 674.923 347.122C674.923 353.797 672.718 361.689 668.708 366.853C663.333 373.737 655.228 378.502 647.67 384.694C657.433 389.501 667.679 394.811 678.22 399.408C679.857 400.122 683.406 398.023 685.316 396.365C722.27 363.83 767.833 354.448 814.55 348.78C860.302 343.239 904.079 353.062 945.8 370.631C982.061 385.912 1012.82 410.071 1032.31 444.6C1047.51 471.551 1056.54 501.567 1058.78 532.968C1059.71 545.751 1061.68 558.765 1060.19 571.317C1057.61 593.042 1048.43 612.478 1025.94 619.51C1014.52 623.078 1001.34 621.147 988.948 621.294C985.399 621.336 981.809 619.909 976.937 618.88C981.389 639.765 974.439 653.85 958.419 665.667C941.831 677.904 925.181 670.915 907.46 668.921C906.851 672.363 906.41 675.323 905.801 678.261C899.838 706.346 878.422 721.941 847.326 721.354C829.227 721.018 812.345 716.757 796.472 708.088C794.435 706.976 791.916 706.703 788.431 705.695C783.601 724.145 779.675 742.386 774.027 760.059C761.765 798.345 748.747 836.4 735.75 874.455C720.528 919.08 705.221 963.684 689.516 1008.16C681.747 1030.16 672.781 1051.74 664.824 1073.67C663.438 1077.47 662.955 1082.84 664.572 1086.29C676.624 1111.75 683.112 1139.08 686.45 1166.45C690.566 1200.26 687.752 1233.68 671.165 1265.48C654.682 1297.07 633.434 1324.63 610.8 1351.73C593.687 1372.21 578.717 1394.48 562.928 1416.06C558.581 1421.98 553.815 1423.09 547.852 1418.6C547.81 1418.56 547.894 1418.73 547.894 1418.73L547.957 1418.64ZM264.525 367.084C265.154 368.91 265.679 370.904 266.477 372.793C272.041 385.954 298.833 396.764 313.426 391.474C326.8 386.625 339.65 379.342 353.403 376.655C388.845 369.728 424.518 363.473 460.359 359.296C512.41 353.23 564.313 355.287 614.327 372.793C629.172 377.998 640.573 376.55 652.352 366.391C665.286 355.266 666.818 343.092 652.835 333.835C640.594 325.733 626.925 318.827 612.92 314.546C574.35 302.77 534.267 299.412 494.164 298.425C445.662 297.229 397.097 299.328 349.708 310.431C328.9 315.301 308.533 323.34 289.09 332.387C275.569 338.684 266.855 351.11 264.483 367.063L264.525 367.084ZM466.028 286.734C466.322 269.753 463.278 264.484 455.005 264.799C445.767 265.156 440.371 270.403 442.89 279.429C446.712 293.094 458.008 281.549 466.007 286.734H466.028Z" fill="#15133D"/>
<path d="M435.121 597.64C482.385 598.963 504.116 615.545 515.307 666.152C518.835 682.104 522.635 698.287 523.391 714.492C524.294 734.097 523.937 754.121 520.766 773.411C517.491 793.414 510.94 813.019 504.452 832.351C497.04 854.432 482.028 872.358 462.627 883.651C440.161 896.727 414.587 896.392 389.622 887.807C351.072 874.541 335.157 843.854 326.737 807.058C315.756 759.012 324.764 712.624 340.007 667.411C353.592 627.11 392.016 597.682 435.121 597.661V597.64ZM437.893 669.972C431.09 673.834 425.148 678.2 418.513 680.74C408.456 684.602 405.327 675.031 402.115 671.063C392.771 674.002 383.911 679.9 377.255 678.011C370.578 676.122 366.085 666.467 360.71 660.295C342.422 687.373 332.133 768.247 343.01 804.224C351.177 796.311 360.71 785.375 371.271 792.68C378.998 798.011 381.517 810.857 385.843 819.337C388.53 813.166 394.136 805.295 403.627 811.172C409.821 814.992 413.222 823.346 418.03 829.895C420.697 824.228 423.363 817.973 426.513 812.012C430.691 804.14 439.573 802.482 444.969 809.325C450.197 815.958 453.766 823.913 458.197 831.511C462.858 824.543 459.268 809.682 472.936 811.466C479.109 812.263 484.379 820.198 490.069 824.92C509.155 800.488 518.688 703.871 503.738 679.543C498.363 681.16 492.988 684.56 488.474 683.657C483.875 682.734 480.138 677.591 476.002 674.275C454.585 695.748 448.181 694.845 437.851 669.993L437.893 669.972ZM448.58 612.627C443.709 640.061 450.218 661.66 457.357 675.702C460.023 671.882 463.446 668.964 464.244 665.438C466.616 655.027 468.674 644.427 469.556 633.785C471.005 616.258 468.044 613.614 448.601 612.606L448.58 612.627ZM414.629 666.655C415.91 666.865 417.211 667.075 418.492 667.285C430.25 650.346 432.161 631.119 432.245 609.227C424.665 611.221 419.185 612.669 414.608 613.865V666.634L414.629 666.655ZM423.09 879.201C442.533 881.048 445.641 878.151 443.499 861.149C443.163 858.505 443.961 855.713 443.667 853.047C442.638 843.308 441.378 833.568 440.203 823.829C438.712 823.829 437.2 823.829 435.709 823.808C431.552 842.006 427.416 860.184 423.069 879.18L423.09 879.201ZM401.779 827.145C400.246 827.145 398.734 827.124 397.202 827.103C393.317 840.873 389.328 854.6 385.717 868.433C385.381 869.734 387.018 872.589 388.383 873.114C394.031 875.339 399.931 876.934 407.574 879.327C405.516 860.772 403.669 843.958 401.8 827.145H401.779ZM367.051 802.44C343.22 819.757 350.631 845.848 370.473 857.686C369.339 839.215 368.268 822.087 367.051 802.44ZM398.168 623.605C376.415 629.944 369.465 649.402 382.756 665.879C395.123 654.271 394.073 638.508 398.168 623.605ZM485.534 630.615C487.088 642.601 488.663 654.586 490.363 667.768C499.644 656.265 498.93 649.045 485.534 630.615ZM470.06 837.347C468.905 844.336 467.771 851.347 466.343 860.079C476.548 852.795 478.101 845.743 470.06 837.347Z" fill="#15133D"/>
<path d="M1318.75 295.448C1325.41 299.436 1330.47 302.479 1335.53 305.523C1335.36 306.782 1335.17 308.063 1335 309.322C1330.09 310.456 1325.15 311.568 1319.99 312.764C1319.99 333.062 1319.99 353.842 1319.99 374.643C1319.99 392.758 1320.37 410.914 1319.63 429.007C1319.49 432.471 1314.97 435.766 1312.45 439.146C1310.29 436.06 1306.43 433.079 1306.22 429.847C1305.1 413.181 1304.72 396.473 1304.43 379.765C1304.05 358.481 1304.33 337.176 1303.53 315.913C1303.4 312.617 1299.69 307.538 1296.6 306.572C1264.79 296.707 1232.71 287.639 1200.83 278.005C1194.81 276.179 1192.44 278.698 1189.05 283.105C1166.21 312.701 1142.99 342.025 1119.77 371.327C1113.95 378.673 1107.84 385.81 1101.52 392.695C1098.06 396.473 1094.26 400.356 1089.8 402.644C1086.95 404.113 1082.64 402.77 1078.99 402.665C1080.17 399.642 1080.69 396.116 1082.6 393.66C1113.07 354.808 1144.04 316.354 1174.23 277.291C1203.63 239.257 1232.16 200.552 1261.35 162.35C1268.34 153.198 1277.45 144.529 1289.69 150.952C1296.26 154.394 1303 162.14 1304.77 169.171C1309.78 188.944 1313.33 209.241 1315.43 229.539C1317.76 251.977 1317.83 274.625 1318.79 295.448H1318.75ZM1202.62 264.802C1236.38 274.563 1268.72 283.924 1303.51 293.978C1301.01 247.863 1304.49 204.036 1284.55 159.684C1251.1 192.638 1229.81 230.462 1202.62 264.802Z" fill="#15133D"/>
<path d="M927.136 153.417H900.722C902.444 172.518 903.997 190.044 905.614 207.55C906.685 218.99 908.428 230.408 908.659 241.869C908.743 245.521 905.698 251.545 902.8 252.49C896.355 254.589 894.885 248.544 894.339 243.569C891.945 221.739 888.859 199.952 887.704 178.059C886.108 147.917 886.948 147.036 858.477 140.277C831.769 133.938 804.516 129.971 777.64 124.22C771.257 122.855 768.633 125.668 765.798 129.782C743.269 162.631 720.823 195.544 698.042 228.204C696.32 230.66 692.247 231.479 689.266 233.074C688.3 229.422 685.36 224.699 686.662 222.264C693.948 208.851 701.759 195.628 710.367 183.013C723.91 163.156 739.93 144.811 751.73 124.031C763.195 103.859 778.858 87.1301 791.771 68.2181C804.726 49.2641 820.116 31.9893 834.583 14.0847C836.514 11.6709 839.055 9.63484 841.596 7.85069C860.849 -5.79285 873.909 -1.8887 878.885 21.4103C886.507 57.0724 892.302 93.1333 898.013 129.173C899.126 136.247 902.465 138.157 908.029 140.109C914.978 142.544 921.613 145.86 928.374 148.778C927.954 150.31 927.555 151.842 927.136 153.375V153.417ZM781.378 109.736C813.082 117.062 844.073 124.346 875.127 131.335C882.644 133.035 883.148 127.935 882.224 122.477C876.807 90.9923 871.453 59.4862 865.721 28.0431C864.902 23.5722 862.172 19.4582 860.324 15.1552C844.157 23.2154 794.899 82.7222 781.378 109.715V109.736Z" fill="#15133D"/>
<path d="M276.408 474.196C302.99 478.268 329.697 481.27 350.484 502.05C375.092 526.629 379.774 573.185 362.935 603.642C343.261 639.241 283.295 663.61 245.627 653.598C216.631 645.895 193.22 631.957 176.381 607.63C167.709 595.099 164.581 579.986 165.21 565.041C166.617 531.541 182.722 505.723 211.781 489.624C231.371 478.772 253.249 473.545 276.408 474.196ZM265.532 642.536C305.131 644.908 343.555 618.65 355.145 583.554C364.741 554.504 351.849 514.875 326.485 499.615C294.612 480.43 237.586 484.985 208.652 508.053C185.346 526.608 171.11 560.57 187.047 595.75C196.747 617.18 235.36 645.79 265.532 642.536Z" fill="#15133D"/>
<path d="M717.588 570.668C717.126 602.069 693.316 632.148 665.685 645.036C635.114 659.309 605.236 658.511 575.84 646.589C535.926 630.385 509.239 594.597 520.997 551.987C529.333 521.761 564.082 491.493 597.215 489.059C631.376 486.561 663.648 491.808 689.558 515.359C705.515 529.863 719.037 547.39 717.567 570.647L717.588 570.668ZM614.243 642.664C645.15 642.517 668.309 632.463 686.471 611.221C705.389 589.097 708.308 560.824 693.442 540.358C671.333 509.923 640.132 498.924 604.039 500.54C579.914 501.611 560.933 514.834 547.012 533.285C537.312 546.152 532.105 561.747 533.931 579.169C537.354 611.787 582.517 644.385 614.243 642.643V642.664Z" fill="#15133D"/>
<path d="M1251.07 684.75C1250.38 691.445 1248.91 698.162 1249.14 704.837C1249.85 724.001 1251.53 743.102 1252.06 762.266C1252.14 765.12 1248.02 768.101 1245.86 771.019C1243.28 768.101 1238.81 765.393 1238.45 762.224C1236.33 743.879 1235.07 725.407 1233.73 706.978C1232.65 692.453 1232 691.802 1217.79 691.928C1203.89 692.054 1189.99 692.285 1176.09 691.823C1164.42 691.424 1166.1 702.276 1162.9 707.923C1156.23 719.782 1152.15 733.111 1146.72 745.705C1144.57 750.7 1142.05 758.047 1135.38 754.458C1132.69 753.009 1131.91 743.732 1133.57 739.261C1141.49 718.103 1150.26 697.26 1159.25 676.521C1174.03 642.434 1189.17 608.493 1204.2 574.531C1206.87 568.528 1210.06 563.49 1218.19 564.686C1226.08 565.841 1229.86 570.858 1231.21 577.784C1235.45 599.929 1239.56 622.094 1243.19 644.323C1244.6 652.887 1243.85 661.849 1245.59 670.329C1246.6 675.283 1250.59 679.607 1253.23 684.225L1251.05 684.771L1251.07 684.75ZM1219.76 586.117C1218.12 586.096 1216.49 586.054 1214.83 586.033C1201.39 616.868 1187.97 647.702 1173.84 680.132C1194.34 679.145 1211.93 678.285 1231.39 677.34C1227.41 646.086 1223.58 616.091 1219.76 586.117Z" fill="#15133D"/>
<path d="M227.616 149.987C226.923 156.683 225.453 163.4 225.684 170.075C226.398 189.239 228.078 208.34 228.603 227.504C228.687 230.358 224.571 233.339 222.409 236.257C219.826 233.339 215.354 230.631 214.997 227.462C212.876 209.116 211.617 190.645 210.273 172.216C209.202 157.691 208.551 157.04 194.336 157.166C180.437 157.292 166.537 157.523 152.637 157.061C140.963 156.662 142.643 167.514 139.451 173.16C132.774 185.02 128.701 198.348 123.263 210.943C121.121 215.938 118.602 223.285 111.925 219.695C109.237 218.247 108.46 208.969 110.119 204.499C118.035 183.341 126.811 162.497 135.798 141.759C150.58 107.671 165.718 73.7305 180.752 39.7686C183.418 33.7654 186.61 28.7278 194.735 29.9242C202.63 31.0787 206.409 36.0953 207.753 43.022C211.994 65.1666 216.11 87.3321 219.742 109.561C221.149 118.124 220.393 127.087 222.136 135.567C223.144 140.521 227.133 144.845 229.779 149.463L227.595 150.008L227.616 149.987ZM196.31 51.3551C194.672 51.3341 193.035 51.2921 191.376 51.2711C177.938 82.1055 164.521 112.94 150.391 145.37C170.883 144.383 188.478 143.522 207.942 142.578C203.953 111.324 200.131 81.3289 196.31 51.3551Z" fill="#15133D"/>
<path d="M1429.52 894.775C1414 886.883 1414.23 874.058 1410.94 863.059C1407.56 851.809 1404.01 840.621 1400.31 828.741C1383.75 830.861 1367.96 832.687 1352.27 835.122C1350.02 835.478 1347 838.333 1346.39 840.579C1343.98 849.542 1342.17 858.672 1340.56 867.803C1339.53 873.575 1337.32 878.991 1330.94 877.039C1328.08 876.157 1324.93 869.734 1325.29 866.166C1326.13 857.602 1329.07 849.248 1330.96 840.768C1335.14 821.856 1339 802.881 1343.35 783.99C1348.18 762.958 1353.01 741.926 1358.78 721.146C1360.02 716.654 1366.74 709.475 1368.48 710.126C1373.96 712.162 1380.43 716.402 1382.65 721.481C1389.79 737.707 1396.15 754.415 1401.09 771.438C1411.17 806.176 1420.3 841.209 1429.35 876.241C1430.69 881.468 1429.54 887.345 1429.54 894.775H1429.52ZM1371.61 732.711C1370.92 732.669 1370.2 732.627 1369.51 732.606C1363.21 761.824 1356.89 791.042 1350.4 821.1C1366.57 819.337 1381.79 817.658 1397.69 815.916C1393.68 801.768 1390 787.705 1385.66 773.852C1381.33 760.019 1376.31 746.418 1371.59 732.711H1371.61Z" fill="#15133D"/>
<path d="M1029.97 841.062C1032.32 848.576 1034.67 856.111 1037 863.626C1041.09 876.892 1045.75 890.031 1048.86 903.507C1049.74 907.306 1047.27 914.401 1044.2 916.059C1037.63 919.627 1036.81 912.911 1035.32 908.293C1029.04 888.772 1022.85 869.23 1016.07 849.877C1015.14 847.254 1010.88 844 1008.28 844.084C991.709 844.672 975.143 845.868 958.661 847.527C955.805 847.82 951.879 850.801 950.829 853.467C946.063 865.767 942.557 878.55 937.622 890.766C936.405 893.789 931.512 895.321 928.3 897.525C926.914 894.25 923.618 890.346 924.437 887.764C930.966 867.257 937.916 846.876 945.475 826.725C952.887 806.932 960.362 787.096 969.285 767.974C976.823 751.791 991.962 751.35 999.856 767.156C1009.14 785.753 1016.3 805.42 1024.55 824.542C1026.84 829.853 1029.69 834.891 1032.3 840.075C1031.54 840.39 1030.78 840.705 1030.01 841.02L1029.97 841.062ZM987.09 772.445C985.872 772.424 984.655 772.382 983.416 772.361C975.08 792.155 966.724 811.969 957.968 832.75C976.55 831.553 993.074 830.483 1011.38 829.286C1002.67 808.884 994.859 790.664 987.069 772.445H987.09Z" fill="#15133D"/>
<path d="M115.974 425.334C110.053 426.488 104.153 427.81 98.1899 428.755C69.7606 433.268 44.8587 445.799 21.1536 461.583C3.24352 473.506 -11.937 487.443 -23.5061 505.977C-38.1407 529.486 -44.3556 555.01 -46.5183 582.024C-46.9172 586.852 -47.2742 591.785 -48.66 596.382C-49.3108 598.523 -52.5233 601.587 -54.203 601.356C-56.7436 601.02 -60.439 598.544 -60.9639 596.319C-62.2447 591.05 -63.2105 585.131 -62.0977 579.925C-58.0874 560.971 -53.8461 542.017 -48.471 523.399C-41.7731 500.268 -26.5506 482.427 -8.59853 467.293C13.0489 449.052 37.027 434.044 64.1755 425.208C80.9518 419.75 98.2109 416.308 115.68 421.849C115.785 423.004 115.89 424.158 115.995 425.313L115.974 425.334Z" fill="#15133D"/>
<path d="M807.643 397.164C858.853 401.026 900.678 419.833 932.341 458.644C952.477 483.328 947.375 503.794 934.168 528.121C931.186 533.599 928.079 539.54 923.439 543.36C920.331 545.921 914.452 545.102 909.812 545.816C910.694 542.268 910.925 538.385 912.584 535.237C919.764 521.593 931.354 510.216 931.375 493.068C931.375 480.348 926.525 470 918.882 460.722C898.264 435.66 871.094 420.757 840.313 412.235C830.004 409.38 819.044 408.918 808.525 406.736C805.354 406.085 802.646 403.272 799.706 401.467C802.541 399.935 805.396 398.402 807.643 397.206V397.164Z" fill="#15133D"/>
<path d="M288.501 775.699C291.546 779.708 293.478 781.283 294.128 783.298C298.244 795.808 302.149 808.402 305.991 820.996C309.897 833.8 313.97 846.583 317.204 859.554C317.981 862.703 315.776 866.586 314.936 870.154C312.353 867.951 308.196 866.187 307.398 863.459C299.797 837.641 292.68 811.676 285.772 785.648C285.184 783.445 287.074 780.59 288.48 775.699H288.501Z" fill="#15133D"/>
<path d="M731.76 576.25C728.338 565.755 724.915 555.26 721.157 543.716C732.243 548.334 737.66 563.048 731.76 576.25Z" fill="#15133D"/>
<path d="M166.786 627.004C176.591 626.311 193.934 642.789 198.091 655.802C187.131 645.727 177.746 637.079 166.786 627.004Z" fill="#15133D"/>
<path d="M678.913 646.105C685.422 641.614 691.952 637.122 698.461 632.63C699.427 633.994 700.393 635.359 701.337 636.723L682.462 651.29L678.913 646.126V646.105Z" fill="#15133D"/>
<path d="M540.904 500.685C536.221 505.786 531.539 510.886 526.857 515.987C525.786 514.958 524.694 513.93 523.624 512.901C528.411 507.927 533.219 502.931 538.006 497.957C538.972 498.859 539.917 499.783 540.883 500.685H540.904Z" fill="#15133D"/>
<path d="M266.036 585.822C250.142 586.074 237.712 577.238 237.964 565.861C238.174 556.268 249.869 545.585 260.619 545.186C274.099 544.682 285.206 554.967 285.269 568.023C285.332 577.636 276.66 585.655 266.036 585.822Z" fill="#15133D"/>
<path d="M595.032 569.386C595.032 557.401 604.46 549.215 618.023 549.425C630.285 549.635 642.19 560.172 642.316 570.919C642.421 580.406 629.739 589.999 617.247 589.852C602.633 589.705 595.032 582.694 595.032 569.365V569.386Z" fill="#15133D"/>
</g>
</svg>
