<svg width="293" height="215" viewBox="0 0 293 215" fill="none" xmlns="http://www.w3.org/2000/svg">
    <g opacity="0.5">
        <path d="M64.4612 115.177C62.6578 116.465 61.1614 117.791 59.4497 118.709C54.0676 121.595 47.648 120.674 44.2281 115.085C42.0788 111.571 41.5212 107.838 41.8741 103.852C41.913 103.414 41.8106 102.966 41.7647 102.409C38.9555 103.672 36.1074 104.808 33.6334 102.536C31.4523 100.532 30.6829 97.8044 31.7629 94.8654C27.5596 92.9391 26.5432 90.794 28.0572 86.4438C29.8924 81.1727 31.5794 75.8029 33.9757 70.7823C36.5273 65.4372 39.686 60.3955 43.8787 56.0277C50.3902 49.2395 58.6274 46.4029 67.5811 45.1045C75.8853 43.9014 83.1555 46.8122 89.914 51.2717C92.0527 52.683 93.9938 54.4012 95.942 56.0735C96.3972 56.4652 96.5172 57.2484 96.7925 57.8552C95.9455 57.7459 94.8232 57.9505 94.2938 57.4813C90.7681 54.3659 86.9918 51.6034 82.7109 49.6982C76.3335 46.8651 69.7904 46.0995 62.8907 48.167C57.3463 49.8323 51.9077 51.5963 47.6197 55.6008C45.3434 57.7282 43.4411 60.2932 41.5459 62.7911C38.2426 67.1378 35.885 72.0278 33.8098 77.0483C32.6346 79.8885 31.4629 82.7392 30.5241 85.6605C30.1006 86.9836 30.2277 88.4901 30.1465 89.919C30.0547 91.6125 30.937 92.4769 32.5852 92.4134C34.1698 92.3534 34.2051 93.2248 34.1628 94.442C34.1028 96.1003 34.0004 97.8185 34.3604 99.4097C34.8368 101.509 36.6403 102.183 38.6343 101.273C39.4813 100.888 40.2507 100.338 41.073 99.8965C43.1835 98.7675 44.4399 99.5508 44.4469 101.992C44.454 104.077 44.2811 106.177 44.4822 108.241C44.8034 111.532 45.9222 114.545 48.7208 116.595C51.3678 118.532 54.3147 118.606 57.1945 117.304C60.512 115.801 63.106 113.335 65.2412 110.396C65.4776 110.072 65.5765 109.645 65.7388 109.267C67.6305 110.816 67.1011 112.414 66.9493 113.752C66.2258 120.074 65.3894 126.386 64.5 132.687C64.0342 135.982 63.2966 139.242 62.8201 142.538C61.7755 149.76 60.8967 157.007 59.7991 164.222C59.1497 168.484 58.2321 172.707 57.4027 176.941C56.6581 180.758 55.9169 184.579 55.0876 188.382C54.2617 192.179 53.2841 195.94 52.4618 199.736C51.396 204.636 50.4537 209.562 49.3879 214.462C48.5161 218.463 47.5668 222.45 46.6068 226.433C45.7845 229.841 44.9552 233.246 44.027 236.626C43.3811 238.979 42.5517 241.283 41.8247 243.619C40.6777 247.306 39.6401 251.028 38.3872 254.68C37.2897 257.869 35.9556 260.977 34.7345 264.121C33.7004 266.785 32.6558 269.448 31.6676 272.13C31.5194 272.535 31.7452 273.075 31.6147 273.499C31.417 274.144 31.0429 274.73 30.7747 275.358C30.0512 277.055 29.1336 278.706 28.6713 280.474C27.3161 285.66 26.3032 290.938 24.8562 296.096C23.0739 302.451 23.1974 308.702 25.1068 314.961C26.8643 320.723 28.5195 326.52 30.5029 332.2C32.2005 337.065 34.2792 341.796 36.2309 346.57C39.086 353.559 42.3541 360.404 44.7399 367.548C46.8786 373.952 48.4773 380.609 49.5573 387.278C50.7713 394.764 51.2337 402.378 51.8372 409.953C52.2607 415.259 52.6877 420.615 51.4595 425.872C51.0678 427.548 50.0655 429.072 49.4373 430.698C47.7997 434.939 45.9504 439.124 44.6728 443.474C42.9188 449.454 41.5 455.544 40.1801 461.637C39.6437 464.121 39.746 466.746 39.5519 469.409C38.6767 469.37 37.9461 469.335 36.9826 469.293C37.4026 465.662 37.759 462.074 38.239 458.504C39.4001 449.877 42.3188 441.738 45.354 433.652C46.0245 431.863 47.3621 430.328 48.3785 428.666C48.5514 428.384 48.7279 428.052 48.7455 427.735C49.0526 422.725 49.6137 417.708 49.5432 412.701C49.4761 407.815 48.8726 402.921 48.2938 398.056C47.6303 392.492 47.0762 386.875 45.8375 381.424C44.5634 375.811 42.7035 370.311 40.7624 364.878C38.6414 358.936 36.1074 353.146 33.8134 347.269C31.1382 340.406 28.2972 333.601 25.9573 326.625C23.6739 319.813 20.9458 312.982 21.0834 305.661C21.1646 301.434 21.9552 297.165 22.9151 293.027C24.1115 287.872 25.795 282.827 27.3055 277.747C27.7219 276.349 28.2795 274.998 28.7454 273.619C28.8724 273.245 29.0489 272.797 28.9536 272.451C27.8243 268.214 26.6314 263.997 25.4879 259.764C24.5103 256.147 23.4692 252.545 22.6398 248.893C21.1752 242.455 19.64 236.023 18.5389 229.517C17.7024 224.574 17.3495 219.536 17.0495 214.522C16.7989 210.338 16.679 206.108 16.9789 201.934C17.3107 197.351 19.76 193.516 22.541 189.991C27.2913 183.976 32.0417 177.95 37.0144 172.118C40.9989 167.443 45.2657 163.001 49.5008 158.545C52.5536 155.331 55.7969 152.3 58.8638 149.096C59.4991 148.433 59.9579 147.403 60.092 146.486C60.9814 140.491 61.7508 134.479 62.5766 128.474C63.173 124.131 63.8012 119.792 64.4542 115.173L64.4612 115.177ZM59.2662 152.293C58.9874 152.081 58.705 151.866 58.4262 151.654C58.1404 152.233 57.9639 152.91 57.5474 153.369C54.8441 156.34 52.0701 159.243 49.3526 162.2C45.5198 166.377 41.5741 170.463 37.9355 174.806C32.9134 180.804 27.9901 186.897 23.3033 193.156C20.8752 196.398 19.3012 200.198 19.3576 204.407C19.4106 208.387 19.3753 212.391 19.7811 216.343C20.4341 222.739 21.0517 229.182 22.3504 235.465C24.0903 243.873 26.4479 252.157 28.5725 260.483C29.1865 262.89 29.9065 265.268 30.6653 267.967C31.0359 267.279 31.3288 266.866 31.4911 266.404C33.404 260.963 35.338 255.533 37.1803 250.072C38.8178 245.21 40.5119 240.362 41.8777 235.423C43.5223 229.46 44.8952 223.42 46.2892 217.391C47.408 212.55 48.3997 207.681 49.4161 202.819C50.6972 196.67 51.9219 190.506 53.2171 184.36C53.8065 181.566 54.6076 178.81 55.1335 176.006C56.4887 168.773 57.7486 161.523 59.0368 154.279C59.1532 153.627 59.1921 152.96 59.2662 152.296V152.293Z" fill="#9DAEE7"/>
        <path d="M144.726 226.427C145.891 228.081 147.013 229.771 148.231 231.387C152.833 237.491 157.499 243.545 162.08 249.666C164.741 253.226 167.299 256.86 169.876 260.484C173.26 265.247 176.698 269.974 179.959 274.819C183.918 280.7 187.352 286.888 189.858 293.535C192.858 301.491 194.947 309.673 195.71 318.183C196.175 323.362 196.243 328.503 195.621 333.678C195.512 334.592 196.334 335.728 196.955 336.6C201.219 342.615 205.14 348.821 208.634 355.331C211.111 359.949 213.37 364.617 214.079 369.807C214.528 373.084 214.559 376.475 214.319 379.781C214.04 383.605 213.536 387.458 212.646 391.184C210.719 399.249 208.669 407.293 206.322 415.246C204.321 422.02 201.812 428.645 199.574 435.352C199.232 436.376 198.886 436.834 197.718 436.4C196.444 435.931 196.977 435.194 197.224 434.435C200.428 424.63 203.965 414.921 206.724 404.993C208.937 397.03 210.547 388.855 211.803 380.68C212.964 373.109 211.521 365.774 207.706 358.986C205.309 354.72 203.202 350.292 200.732 346.076C198.879 342.912 196.73 339.913 194.58 336.938C191.63 332.856 188.648 328.792 185.514 324.851C181.596 319.922 177.541 315.106 173.497 310.283C170.991 307.295 168.506 304.275 165.803 301.467C162.118 297.642 158.427 293.782 154.389 290.346C149.971 286.588 145.037 283.445 140.544 279.768C136.013 276.06 131.739 272.035 127.366 268.133C121.656 263.038 117.064 257.026 112.903 250.644C110.825 247.458 108.456 244.448 106.561 241.16C104.052 236.813 101.761 232.329 99.591 227.806C97.7805 224.034 96.1218 220.175 94.6677 216.251C92.6349 210.755 91.375 205.081 90.8103 199.203C90.2033 192.87 89.0774 186.587 88.2445 180.275C88.1845 179.82 88.6504 179.298 88.8692 178.804C89.4268 179.252 90.3974 179.636 90.4785 180.159C91.5903 187.194 92.6808 194.232 93.5631 201.296C94.3678 207.727 96.083 213.905 98.5993 219.829C100.495 224.288 102.796 228.579 104.991 232.908C106.727 236.334 108.361 239.841 110.426 243.065C113.26 247.486 116.274 251.819 119.549 255.918C123.046 260.286 126.773 264.502 130.715 268.471C133.493 271.266 136.814 273.517 139.86 276.053C142.104 277.92 144.239 279.917 146.526 281.73C147.829 282.76 149.41 283.438 150.726 284.45C152.575 285.876 154.365 287.396 156.062 288.998C159.595 292.332 163.152 295.652 166.516 299.152C170.282 303.068 173.931 307.105 177.474 311.222C180.968 315.283 184.293 319.492 187.628 323.687C189.117 325.557 190.444 327.557 191.852 329.491C192.223 329.999 192.632 330.482 193.027 330.976C193.222 330.955 193.416 330.934 193.606 330.912C193.606 328.044 193.892 325.137 193.546 322.311C192.802 316.175 191.923 310.04 190.726 303.979C190.123 300.913 188.803 297.97 187.642 295.042C186.438 292.011 185.171 288.988 183.678 286.091C182.03 282.894 180.209 279.776 178.261 276.748C175.487 272.441 172.579 268.21 169.632 264.015C167.388 260.822 165.026 257.711 162.662 254.606C158.377 248.982 153.966 243.453 149.773 237.766C146.519 233.352 143.244 228.914 140.477 224.197C137.23 218.654 134.809 212.688 133.087 206.45C131.862 202.008 130.302 197.658 129.088 193.216C128.418 190.764 128.146 188.203 127.687 185.631C129.547 184.802 129.868 186.114 130.144 187.18C130.913 190.178 131.488 193.227 132.303 196.212C133.073 199.027 134.026 201.793 134.943 204.563C136.002 207.759 136.976 210.994 138.229 214.117C139.965 218.442 141.804 222.743 144.744 226.448L144.73 226.419L144.726 226.427Z" fill="#9DAEE7"/>
        <path d="M144.741 226.454C145.513 225.301 146.251 224.115 147.07 222.993C149.985 218.992 152.837 214.942 155.882 211.037C159.517 206.376 163.086 201.645 164.974 196.01C166.65 191.007 166.181 185.81 165.055 180.719C164.42 177.844 163.569 175.014 162.821 172.188C160.52 172.633 160.072 172.259 160.792 170.339C162.027 167.041 163.618 163.876 164.832 160.574C167.074 154.495 169.124 148.345 171.298 142.241C173.412 136.311 175.713 130.44 177.679 124.463C179.426 119.153 180.823 113.73 182.383 108.361C183.04 106.106 182.74 104.293 180.365 103.153C179.952 102.955 179.892 102.021 179.666 101.428C180.255 101.35 181.003 101.001 181.402 101.241C183.142 102.292 184.667 103.735 186.474 104.621C190.215 106.452 194.04 108.103 198.413 106.561C200.668 105.764 202.052 104.356 202.341 101.992C202.412 101.41 202.465 100.824 202.574 100.253C202.881 98.6512 203.866 98.002 205.479 98.2807C206.961 98.5383 208.443 98.944 209.936 98.9934C213.007 99.0922 215.371 95.4793 214.365 92.5757C214.076 91.743 213.906 90.2048 214.309 89.9366C215.018 89.4674 216.211 89.6685 217.199 89.7108C217.704 89.732 218.198 90.0284 218.696 90.1977C223.245 91.7289 227.127 89.9437 227.932 85.2971C228.489 82.0901 228.256 78.6431 227.787 75.3866C227.332 72.2501 226.407 69.0995 225.172 66.1711C222.839 60.639 218.547 56.7051 213.434 53.7732C207.988 50.6508 202.034 49.0949 195.749 48.6468C187.624 48.0647 180.065 49.9452 172.943 53.6709C171.27 54.5459 169.862 55.9818 168.461 57.2943C167.37 58.3139 166.819 58.7161 165.376 57.3966C163.7 55.8654 161.434 54.7893 159.246 54.0555C155.325 52.743 151.323 51.5011 147.257 50.8272C139.454 49.5324 131.612 49.9664 123.798 51.1483C118.045 52.0197 112.385 53.2546 107.024 55.5055C104.123 56.7227 101.423 58.4304 98.6347 59.9157C98.2712 60.1098 97.9006 60.5049 97.5654 60.4732C97.0642 60.4238 96.5913 60.078 96.1078 59.8593C96.3054 59.4571 96.3937 58.9067 96.7148 58.6738C97.9748 57.753 99.3053 56.9309 100.904 55.8795C99.997 55.5338 99.3723 55.2903 98.7441 55.061C94.3502 53.4627 93.295 48.4634 96.3725 44.9035C99.3476 41.4635 103.254 39.8124 107.433 38.895C112.628 37.759 117.918 37.0075 123.195 36.3266C124.853 36.1113 125.129 35.4163 125.005 34.0897C124.857 32.5091 125.323 31.2884 126.978 30.8333C129.307 30.1911 132.131 30.9109 132.752 32.301C132.911 32.6573 132.911 33.1018 132.921 33.5076C132.946 34.312 132.928 35.1164 132.928 35.7938C137.312 36.1113 141.455 36.3301 145.577 36.7288C151.086 37.2615 156.588 38.1365 161.43 40.9273C163.438 42.0845 166.085 43.337 166.082 46.3465C166.082 47.4684 165.711 48.795 165.037 49.6629C164.134 50.8202 162.771 51.621 161.501 52.6618C163.142 53.4698 164.864 54.3624 166.636 55.1351C166.911 55.255 167.508 54.9022 167.829 54.6235C174.04 49.1549 181.699 47.5778 189.551 46.6252C197.241 45.6938 204.6 47.3449 211.612 50.298C217.707 52.8665 222.878 56.9274 226.153 62.7312C228.708 67.2613 230.226 72.3065 230.603 77.5846C230.759 79.7333 231.09 81.9207 230.84 84.0305C230.406 87.6822 228.863 90.9492 225.084 92.1312C223.164 92.7309 220.947 92.4063 218.865 92.431C218.269 92.4381 217.665 92.1982 216.846 92.0253C217.595 95.5358 216.426 97.9032 213.734 99.8895C210.945 101.946 208.147 100.772 205.168 100.436C205.066 101.015 204.992 101.512 204.889 102.006C203.887 106.727 200.287 109.348 195.06 109.25C192.018 109.193 189.181 108.477 186.513 107.02C186.17 106.833 185.747 106.787 185.161 106.618C184.349 109.719 183.689 112.785 182.74 115.756C180.679 122.191 178.491 128.587 176.306 134.984C173.747 142.485 171.175 149.982 168.535 157.458C167.229 161.156 165.722 164.783 164.384 168.47C164.151 169.108 164.07 170.011 164.342 170.59C166.368 174.87 167.458 179.463 168.019 184.064C168.711 189.748 168.238 195.365 165.45 200.71C162.68 206.02 159.108 210.652 155.304 215.207C152.427 218.65 149.911 222.394 147.257 226.021C146.526 227.015 145.725 227.202 144.723 226.447C144.716 226.44 144.73 226.469 144.73 226.469L144.741 226.454ZM97.0995 49.7017C97.2054 50.0087 97.2936 50.3439 97.4277 50.6614C98.363 52.8735 102.866 54.6905 105.319 53.8014C107.567 52.9864 109.727 51.7622 112.039 51.3106C117.996 50.1463 123.992 49.0949 130.017 48.3928C138.766 47.3732 147.49 47.7189 155.896 50.6614C158.392 51.5364 160.308 51.2929 162.288 49.5853C164.462 47.7154 164.72 45.6691 162.369 44.1132C160.312 42.7513 158.014 41.5905 155.66 40.8708C149.177 38.8915 142.44 38.327 135.699 38.1612C127.546 37.9601 119.383 38.3129 111.418 40.1793C107.92 40.9978 104.497 42.3491 101.229 43.8697C98.9559 44.9282 97.4912 47.0168 97.0924 49.6982L97.0995 49.7017ZM130.97 36.196C131.019 33.3418 130.507 32.4562 129.117 32.5091C127.564 32.5691 126.657 33.4511 127.08 34.9682C127.723 37.265 129.621 35.3246 130.966 36.196H130.97Z" fill="#9DAEE7"/>
        <path d="M125.775 88.4551C133.719 88.6774 137.372 91.4646 139.253 99.9709C139.846 102.652 140.484 105.373 140.611 108.096C140.763 111.392 140.703 114.757 140.17 118C139.62 121.362 138.519 124.657 137.428 127.907C136.182 131.618 133.659 134.631 130.398 136.53C126.622 138.728 122.323 138.671 118.127 137.228C111.647 134.998 108.972 129.84 107.557 123.655C105.711 115.579 107.225 107.782 109.787 100.183C112.071 93.4086 118.529 88.4621 125.775 88.4586V88.4551ZM126.24 100.613C125.097 101.262 124.098 101.996 122.983 102.423C121.292 103.072 120.767 101.463 120.227 100.797C118.656 101.29 117.167 102.282 116.048 101.964C114.926 101.647 114.17 100.024 113.267 98.9866C110.193 103.538 108.464 117.132 110.292 123.179C111.665 121.849 113.267 120.011 115.042 121.239C116.341 122.135 116.764 124.294 117.491 125.719C117.943 124.682 118.885 123.359 120.481 124.347C121.522 124.989 122.094 126.393 122.902 127.494C123.35 126.541 123.798 125.49 124.328 124.488C125.03 123.165 126.523 122.886 127.43 124.036C128.309 125.151 128.908 126.488 129.653 127.766C130.437 126.594 129.833 124.096 132.131 124.396C133.168 124.53 134.054 125.864 135.011 126.658C138.219 122.551 139.821 106.311 137.308 102.222C136.405 102.494 135.501 103.065 134.742 102.913C133.969 102.758 133.341 101.894 132.646 101.336C129.046 104.946 127.97 104.794 126.233 100.617L126.24 100.613ZM128.037 90.9742C127.218 95.5855 128.312 99.2159 129.512 101.576C129.96 100.934 130.535 100.444 130.67 99.851C131.068 98.101 131.414 96.3193 131.562 94.5305C131.806 91.5845 131.308 91.14 128.04 90.9706L128.037 90.9742ZM122.33 100.056C122.545 100.091 122.764 100.126 122.979 100.161C124.956 97.3142 125.277 94.0825 125.291 90.4026C124.017 90.7378 123.096 90.9812 122.326 91.1823V100.052L122.33 100.056ZM123.752 135.782C127.02 136.092 127.543 135.605 127.183 132.747C127.126 132.303 127.26 131.834 127.211 131.385C127.038 129.748 126.826 128.111 126.629 126.474C126.378 126.474 126.124 126.474 125.873 126.471C125.175 129.53 124.479 132.585 123.749 135.778L123.752 135.782ZM120.17 127.032C119.912 127.032 119.658 127.028 119.401 127.025C118.748 129.339 118.077 131.647 117.47 133.972C117.414 134.19 117.689 134.67 117.918 134.758C118.868 135.132 119.86 135.401 121.144 135.803C120.798 132.684 120.488 129.858 120.174 127.032H120.17ZM114.333 122.879C110.327 125.79 111.573 130.175 114.908 132.165C114.717 129.06 114.537 126.181 114.333 122.879ZM119.563 92.8194C115.907 93.8849 114.739 97.1555 116.973 99.9251C119.051 97.974 118.875 95.3244 119.563 92.8194ZM134.248 93.9978C134.509 96.0124 134.774 98.0269 135.06 100.243C136.62 98.3092 136.5 97.0955 134.248 93.9978ZM131.647 128.746C131.453 129.921 131.262 131.1 131.022 132.567C132.738 131.343 132.999 130.158 131.647 128.746Z" fill="#9DAEE7"/>
        <path d="M274.3 37.6606C275.419 38.331 276.27 38.8426 277.12 39.3541C277.092 39.5658 277.06 39.781 277.032 39.9927C276.206 40.1833 275.377 40.3702 274.509 40.5714C274.509 43.9831 274.509 47.4759 274.509 50.9723C274.509 54.0171 274.572 57.0689 274.449 60.1102C274.424 60.6923 273.665 61.2463 273.242 61.8143C272.878 61.2956 272.229 60.7946 272.193 60.2513C272.006 57.45 271.943 54.6416 271.893 51.8332C271.83 48.2556 271.876 44.6746 271.742 41.1006C271.72 40.5467 271.096 39.6928 270.577 39.5306C265.23 37.8723 259.838 36.3482 254.48 34.7288C253.467 34.4218 253.068 34.8452 252.5 35.5861C248.66 40.5608 244.757 45.4896 240.854 50.4149C239.876 51.6497 238.849 52.8493 237.787 54.0065C237.205 54.6416 236.566 55.2943 235.818 55.6789C235.338 55.9258 234.614 55.7 234 55.6824C234.198 55.1743 234.286 54.5816 234.607 54.1688C239.728 47.6382 244.934 41.1747 250.009 34.6088C254.95 28.2158 259.746 21.7099 264.651 15.2887C265.827 13.7504 267.358 12.2933 269.416 13.3729C270.52 13.9515 271.653 15.2534 271.95 16.4353C272.793 19.7589 273.39 23.1706 273.743 26.5823C274.134 30.3539 274.145 34.1607 274.307 37.6606H274.3ZM254.78 32.5096C260.455 34.1501 265.89 35.7237 271.738 37.4137C271.318 29.6623 271.904 22.2956 268.551 14.8406C262.929 20.3798 259.35 26.7375 254.78 32.5096Z" fill="#9DAEE7"/>
        <path d="M208.475 13.7872H204.035C204.325 16.9979 204.586 19.9438 204.858 22.8863C205.038 24.8092 205.331 26.7285 205.37 28.6548C205.384 29.2687 204.872 30.2813 204.385 30.4401C203.301 30.7929 203.054 29.7768 202.963 28.9406C202.56 25.2713 202.041 21.6091 201.847 17.9293C201.579 12.8629 201.72 12.7147 196.935 11.5786C192.445 10.5131 187.865 9.84631 183.347 8.8796C182.274 8.65027 181.833 9.12304 181.357 9.81456C177.57 15.3361 173.797 20.8682 169.968 26.358C169.678 26.7708 168.994 26.9084 168.493 27.1765C168.33 26.5626 167.836 25.7688 168.055 25.3595C169.28 23.1051 170.592 20.8823 172.039 18.7619C174.316 15.4243 177.009 12.3407 178.992 8.84785C180.919 5.45731 183.552 2.64538 185.722 -0.533477C187.9 -3.71939 190.487 -6.62305 192.918 -9.63255C193.243 -10.0383 193.67 -10.3805 194.097 -10.6804C197.333 -12.9737 199.529 -12.3175 200.365 -8.40123C201.646 -2.40692 202.62 3.65442 203.58 9.71224C203.767 10.9012 204.328 11.2223 205.264 11.5504C206.432 11.9597 207.547 12.5171 208.683 13.0075C208.613 13.2651 208.546 13.5226 208.475 13.7802V13.7872ZM183.975 6.44518C189.304 7.6765 194.514 8.90077 199.733 10.0756C200.997 10.3614 201.082 9.50408 200.926 8.58677C200.016 3.29455 199.116 -2.00118 198.152 -7.28634C198.015 -8.03783 197.556 -8.72935 197.245 -9.45262C194.528 -8.09781 186.248 1.90447 183.975 6.44165V6.44518Z" fill="#9DAEE7"/>
        <path d="M21.6481 112.868C20.8435 112.31 19.8694 111.89 19.2659 111.163C17.4766 109.001 15.8355 106.718 14.1274 104.485C13.9544 104.255 13.7391 104.058 13.5909 103.895C9.75111 105.349 6.01013 106.796 2.24444 108.172C0.493938 108.81 -0.0319166 109.837 0.179837 111.753C0.585699 115.468 0.673929 119.222 0.790394 122.962C0.804511 123.473 0.2116 124.002 -0.102501 124.525C-0.52248 124.027 -1.26009 123.561 -1.31656 123.029C-1.793 118.498 -2.26592 113.961 -2.50238 109.41C-2.71766 105.271 -2.6012 101.119 -2.68943 96.9733C-2.76354 93.424 -2.98941 89.8711 -3 86.3218C-3 85.2034 -2.72472 83.9791 -2.20945 82.9948C-1.58125 81.7917 -0.271904 81.7106 0.645695 82.5855C2.49854 84.3531 4.38668 86.1525 5.8866 88.2094C10.3158 94.306 14.5579 100.54 18.8883 106.707C19.7282 107.903 20.6988 109.008 21.507 110.225C21.9093 110.832 22.0787 111.594 22.3575 112.285C22.1211 112.479 21.8846 112.674 21.6481 112.868ZM-0.00015378 85.1964C-0.180145 85.274 -0.363664 85.3481 -0.543655 85.4257C-0.349548 92.3938 -0.15544 99.3618 0.042197 106.453C4.30551 104.869 8.28295 103.391 12.3274 101.888C8.39589 96.1548 4.69725 90.3016 -0.00368309 85.1964H-0.00015378Z" fill="#9DAEE7"/>
        <path d="M99.097 67.7059C103.565 68.3903 108.054 68.8948 111.548 72.3877C115.684 76.5192 116.471 84.3446 113.641 89.4639C110.334 95.4476 100.255 99.5438 93.9232 97.8609C89.0493 96.5661 85.1142 94.2234 82.2838 90.1343C80.8262 88.028 80.3003 85.4877 80.4062 82.9757C80.6427 77.3447 83.3496 73.0051 88.234 70.2991C91.5268 68.475 95.2043 67.5965 99.097 67.7059ZM97.2689 96.0016C103.925 96.4002 110.383 91.9865 112.332 86.0875C113.944 81.2045 111.778 74.5434 107.514 71.9784C102.157 68.7537 92.5715 69.5193 87.7082 73.3968C83.7907 76.5156 81.3979 82.2242 84.0766 88.1373C85.7071 91.7396 92.1974 96.5484 97.2689 96.0016Z" fill="#9DAEE7"/>
        <path d="M173.253 83.9214C173.176 89.1995 169.173 94.2553 164.529 96.4216C159.39 98.8208 154.368 98.6867 149.427 96.6827C142.718 93.959 138.233 87.9435 140.209 80.7814C141.61 75.7008 147.451 70.6133 153.02 70.204C158.762 69.7842 164.187 70.6662 168.542 74.6248C171.224 77.0627 173.497 80.0087 173.25 83.9179L173.253 83.9214ZM155.882 96.0229C161.077 95.9982 164.97 94.3083 168.023 90.7378C171.203 87.0191 171.693 82.2667 169.195 78.8268C165.478 73.711 160.234 71.8622 154.167 72.1339C150.112 72.3138 146.922 74.5366 144.582 77.6378C142.951 79.8005 142.076 82.422 142.383 85.3503C142.958 90.833 150.55 96.3122 155.882 96.0194V96.0229Z" fill="#9DAEE7"/>
        <path d="M262.924 103.097C262.808 104.222 262.56 105.351 262.599 106.473C262.719 109.695 263.002 112.905 263.09 116.126C263.104 116.606 262.412 117.107 262.049 117.598C261.615 117.107 260.863 116.652 260.803 116.119C260.446 113.036 260.235 109.931 260.009 106.833C259.829 104.392 259.719 104.282 257.33 104.304C254.994 104.325 252.657 104.364 250.321 104.286C248.359 104.219 248.641 106.043 248.105 106.992C246.982 108.985 246.298 111.226 245.384 113.343C245.024 114.182 244.6 115.417 243.478 114.814C243.026 114.57 242.896 113.011 243.174 112.26C244.505 108.703 245.98 105.2 247.491 101.714C249.975 95.9842 252.52 90.2792 255.047 84.5707C255.495 83.5617 256.031 82.7149 257.397 82.916C258.724 83.1101 259.359 83.9533 259.585 85.1176C260.298 88.8398 260.99 92.5655 261.601 96.3018C261.837 97.7413 261.71 99.2478 262.003 100.673C262.172 101.506 262.843 102.233 263.288 103.009L262.92 103.1L262.924 103.097ZM257.662 86.5182C257.387 86.5147 257.111 86.5077 256.833 86.5041C254.574 91.687 252.319 96.8698 249.943 102.321C253.388 102.155 256.345 102.01 259.617 101.852C258.947 96.5981 258.304 91.5564 257.662 86.5182Z" fill="#9DAEE7"/>
        <path d="M90.8957 13.2107C90.7792 14.3362 90.5322 15.4652 90.571 16.5872C90.691 19.8084 90.9733 23.019 91.0615 26.2402C91.0757 26.72 90.3839 27.221 90.0204 27.7114C89.5863 27.221 88.8346 26.7659 88.7746 26.2331C88.4182 23.1495 88.2064 20.0447 87.9805 16.947C87.8005 14.5056 87.6911 14.3962 85.3019 14.4174C82.9655 14.4385 80.6291 14.4773 78.2928 14.3997C76.3305 14.3327 76.6129 16.1567 76.0764 17.1058C74.9541 19.0992 74.2695 21.3396 73.3554 23.4565C72.9954 24.2962 72.5719 25.531 71.4496 24.9277C70.9979 24.6843 70.8673 23.1248 71.1461 22.3733C72.4766 18.817 73.9518 15.3135 75.4623 11.8277C77.9469 6.09801 80.4915 0.393009 83.0184 -5.31552C83.4666 -6.32457 84.0031 -7.17132 85.3689 -6.97022C86.6959 -6.77617 87.3312 -5.93295 87.557 -4.76866C88.2699 -1.04647 88.9617 2.67924 89.5722 6.41554C89.8087 7.85503 89.6816 9.36154 89.9745 10.7869C90.144 11.6196 90.8145 12.3463 91.2592 13.1225L90.8922 13.2143L90.8957 13.2107ZM85.6336 -3.36799C85.3583 -3.37152 85.083 -3.37857 84.8042 -3.3821C82.5455 1.80074 80.2903 6.98357 77.9152 12.4346C81.3597 12.2687 84.3172 12.1241 87.5888 11.9653C86.9182 6.71191 86.2759 1.6702 85.6336 -3.36799Z" fill="#9DAEE7"/>
        <path d="M292.919 138.399C290.311 137.073 290.35 134.917 289.795 133.068C289.227 131.177 288.631 129.297 288.01 127.3C285.225 127.656 282.571 127.963 279.935 128.372C279.557 128.432 279.049 128.912 278.947 129.29C278.541 130.796 278.237 132.331 277.965 133.866C277.792 134.836 277.422 135.746 276.349 135.418C275.869 135.27 275.34 134.19 275.4 133.591C275.541 132.151 276.035 130.747 276.353 129.322C277.055 126.143 277.704 122.953 278.435 119.778C279.247 116.243 280.058 112.708 281.029 109.215C281.237 108.46 282.366 107.253 282.659 107.362C283.58 107.705 284.667 108.417 285.042 109.271C286.241 111.998 287.311 114.807 288.14 117.668C289.834 123.507 291.369 129.396 292.891 135.284C293.116 136.163 292.922 137.151 292.922 138.399H292.919ZM283.185 111.159C283.069 111.152 282.949 111.145 282.832 111.141C281.773 116.052 280.711 120.963 279.621 126.016C282.338 125.719 284.897 125.437 287.568 125.144C286.894 122.766 286.277 120.402 285.546 118.074C284.819 115.749 283.976 113.463 283.182 111.159H283.185Z" fill="#9DAEE7"/>
        <path d="M225.76 129.371C226.155 130.634 226.55 131.901 226.942 133.164C227.63 135.393 228.414 137.602 228.936 139.867C229.084 140.506 228.668 141.698 228.152 141.977C227.048 142.577 226.91 141.448 226.66 140.672C225.604 137.39 224.563 134.106 223.423 130.853C223.268 130.412 222.552 129.865 222.114 129.879C219.329 129.978 216.545 130.179 213.774 130.458C213.294 130.507 212.634 131.008 212.458 131.456C211.657 133.524 211.067 135.672 210.238 137.726C210.033 138.234 209.211 138.491 208.671 138.862C208.438 138.311 207.884 137.655 208.022 137.221C209.119 133.774 210.287 130.348 211.558 126.961C212.804 123.634 214.06 120.3 215.56 117.086C216.827 114.366 219.372 114.292 220.699 116.948C222.259 120.074 223.462 123.38 224.849 126.594C225.234 127.487 225.714 128.334 226.151 129.205C226.024 129.258 225.897 129.311 225.767 129.364L225.76 129.371ZM218.553 117.837C218.348 117.834 218.144 117.827 217.935 117.823C216.534 121.15 215.13 124.481 213.658 127.974C216.781 127.773 219.559 127.593 222.636 127.392C221.172 123.962 219.859 120.9 218.549 117.837H218.553Z" fill="#9DAEE7"/>
        <path d="M19 33.1667C19.1235 32.2035 19.2965 31.2403 19.3635 30.2736C19.6035 26.7807 19.6388 23.2667 20.0729 19.7986C20.4399 16.8526 22.8645 16.0764 24.9644 18.2215C27.4454 20.7582 29.7395 23.4855 32.0193 26.2092C34.3416 28.9823 36.5826 31.826 38.7637 34.712C39.039 35.0754 38.7319 35.8763 38.6966 36.4725C38.0649 36.2997 37.2038 36.3314 36.8403 35.9221C35.3756 34.2604 34.1051 32.4293 32.6652 30.7464C32.3511 30.3794 31.5605 30.1289 31.0911 30.2418C28.3842 30.8981 25.6914 31.6319 23.0304 32.4646C22.6104 32.5951 22.1198 33.3501 22.1198 33.8158C22.1198 37.2593 22.2328 40.7063 22.3281 44.1498C22.3492 44.9648 22.5963 46.0761 21.354 45.875C20.7752 45.7833 19.9882 44.7954 19.9141 44.1427C19.6529 41.8318 19.66 39.4891 19.5647 37.157C19.5117 35.8339 19.4659 34.5109 19.42 33.1843C19.2823 33.1773 19.1447 33.1702 19.0071 33.1631L19 33.1667ZM21.6999 30.2842C24.6679 29.4515 27.3502 28.6965 30.3606 27.8498C27.8125 25.0414 25.3844 22.3706 22.9563 19.6962C22.7657 19.7703 22.5716 19.8409 22.381 19.915C22.1622 23.2385 21.9434 26.562 21.6999 30.2842Z" fill="#9DAEE7"/>
        <path d="M72.1302 59.4928C71.1349 59.6868 70.1432 59.9091 69.1409 60.0679C64.3623 60.8264 60.1767 62.9327 56.1922 65.5859C53.1817 67.5898 50.6301 69.9325 48.6855 73.0479C46.2256 76.9994 45.181 81.2896 44.8174 85.8303C44.7504 86.6418 44.6904 87.4709 44.4575 88.2436C44.3481 88.6034 43.8081 89.1186 43.5257 89.0798C43.0987 89.0233 42.4776 88.607 42.3893 88.233C42.1741 87.3474 42.0117 86.3525 42.1988 85.4775C42.8728 82.2916 43.5857 79.1057 44.4892 75.9762C45.6151 72.0882 48.1737 69.0893 51.1912 66.5455C54.8299 63.4796 58.8603 60.9569 63.4236 59.4716C66.2434 58.5543 69.1444 57.9757 72.0808 58.9071C72.0984 59.1011 72.1161 59.2952 72.1337 59.4892L72.1302 59.4928Z" fill="#9DAEE7"/>
        <path d="M188.39 54.7578C196.998 55.407 204.028 58.5682 209.35 65.0917C212.735 69.2408 211.877 72.6808 209.657 76.7699C209.156 77.6907 208.634 78.6892 207.854 79.3313C207.332 79.7617 206.343 79.6241 205.563 79.7441C205.712 79.1478 205.75 78.4951 206.029 77.9659C207.236 75.6726 209.184 73.7604 209.188 70.8779C209.188 68.7398 208.373 67.0005 207.088 65.441C203.622 61.2284 199.056 58.7234 193.882 57.291C192.149 56.8112 190.307 56.7336 188.538 56.3666C188.005 56.2573 187.55 55.7845 187.056 55.4811C187.533 55.2235 188.013 54.966 188.39 54.7649V54.7578Z" fill="#9DAEE7"/>
        <path d="M101.13 118.384C101.641 119.058 101.966 119.323 102.076 119.661C102.767 121.764 103.424 123.881 104.07 125.998C104.726 128.15 105.411 130.299 105.954 132.479C106.085 133.008 105.714 133.661 105.573 134.261C105.139 133.89 104.44 133.594 104.306 133.135C103.028 128.796 101.832 124.432 100.671 120.057C100.572 119.686 100.89 119.206 101.126 118.384H101.13Z" fill="#9DAEE7"/>
        <path d="M175.635 84.8597C175.06 83.0957 174.485 81.3316 173.853 79.3911C175.716 80.1673 176.627 82.6405 175.635 84.8597Z" fill="#9DAEE7"/>
        <path d="M80.6709 93.3908C82.319 93.2743 85.2342 96.0439 85.933 98.2314C84.0907 96.5378 82.5132 95.0843 80.6709 93.3908Z" fill="#9DAEE7"/>
        <path d="M166.752 96.6015C167.847 95.8465 168.944 95.0914 170.038 94.3364C170.2 94.5658 170.363 94.7951 170.522 95.0244L167.349 97.4729L166.752 96.605V96.6015Z" fill="#9DAEE7"/>
        <path d="M143.555 72.1584C142.768 73.0157 141.981 73.873 141.194 74.7304C141.014 74.5575 140.83 74.3846 140.65 74.2117C141.455 73.3756 142.263 72.5359 143.068 71.6997C143.23 71.8514 143.389 72.0067 143.551 72.1584H143.555Z" fill="#9DAEE7"/>
        <path d="M97.3535 86.4687C94.6819 86.511 92.5926 85.0257 92.6349 83.1135C92.6702 81.5011 94.636 79.7053 96.4429 79.6382C98.7087 79.5536 100.576 81.2824 100.586 83.4769C100.597 85.0927 99.1393 86.4405 97.3535 86.4687Z" fill="#9DAEE7"/>
        <path d="M152.653 83.706C152.653 81.6915 154.238 80.3155 156.518 80.3508C158.579 80.386 160.58 82.1572 160.601 83.9636C160.619 85.5583 158.487 87.1707 156.387 87.146C153.931 87.1213 152.653 85.9429 152.653 83.7025V83.706Z" fill="#9DAEE7"/>
    </g>
</svg>
